<?xml version="1.0" encoding="utf-8"?>
<!-- Generator: Adobe Illustrator 26.0.2, SVG Export Plug-In . SVG Version: 6.00 Build 0)  -->
<svg version="1.1"
	 id="svg2" xmlns:cc="http://creativecommons.org/ns#" xmlns:dc="http://purl.org/dc/elements/1.1/" xmlns:inkscape="http://www.inkscape.org/namespaces/inkscape" xmlns:mtc="http://www.make-the-cut.com/namespaces/make-the-cut" xmlns:rdf="http://www.w3.org/1999/02/22-rdf-syntax-ns#" xmlns:sodipodi="http://sodipodi.sourceforge.net/DTD/sodipodi-0.dtd" xmlns:svg="http://www.w3.org/2000/svg"
	 xmlns="http://www.w3.org/2000/svg" xmlns:xlink="http://www.w3.org/1999/xlink" x="0px" y="0px" viewBox="0 0 11.8 11.2"
	 style="enable-background:new 0 0 11.8 11.2;" xml:space="preserve">
<style type="text/css">
	.st0{fill:#393434;}
	.st1{fill:none;stroke:#000000;stroke-width:0.125;stroke-linejoin:round;}
</style>
<sodipodi:namedview  bordercolor="#666666" borderopacity="1" gridtolerance="10" guidetolerance="10" id="namedview6" inkscape:current-layer="New Layer" inkscape:cx="370.41448" inkscape:cy="422.47086" inkscape:pageopacity="0" inkscape:pageshadow="2" inkscape:window-height="480" inkscape:window-maximized="0" inkscape:window-width="640" inkscape:window-x="0" inkscape:window-y="0" inkscape:zoom="0.27934375" objecttolerance="10" pagecolor="#ffffff" showgrid="false">
	</sodipodi:namedview>
<g id="New_Layer" transform="translate(0.0739369,0.08671738)" inkscape:groupmode="layer">
	<g id="Trace_Path_2__x28_1_x29_:_2__x28_1_x29_:_2__x28_W_x29___x28_J_x29___x28_J_x29_" inkscape:connector-curvature="0">
		<path class="st0" d="M2.9,5.1c0,0-0.2-0.2-0.4-0.3C2.3,4.6,1.9,4.3,1.9,4.2c0,0,0,0,0-0.1C1.9,4.2,2,4.1,2,4C2.1,4,4.4,2,4.9,1.5
			s1-0.6,1-0.3c0,0.3,0,1.2,0,1.3c0,0.1-0.1,0.2-0.2,0.3C5.6,2.9,5.4,3.1,5.2,3.3C5.1,3.4,4.6,3.7,4.5,3.9C4.3,4,3.7,4.5,3.4,4.8
			c0,0,0,0-0.1,0.1C3.1,5,3,5.1,2.9,5.1L2.9,5.1C3,5.1,2.9,5.1,2.9,5.1z M6,7.8c0,0-0.3-0.3-0.7-0.6C4.9,6.9,3.7,5.8,3.5,5.7
			c-0.2-0.2,0-0.6,0.4-0.9c0.4-0.3,1-0.9,1.5-1.2c0.4-0.3,1-0.4,1.4-0.1C7.1,3.8,8.1,4.7,9,5.4c0,0,0,0,0,0C9,5.5,6.1,7.9,6,7.8
			L6,7.8C6,7.8,6,7.8,6,7.8z M6.2,10.2c0,0,0-0.1,0-0.3c0-0.2,0-1.1,0-1.3c0-0.2,0.1-0.4,0.1-0.5c0.1-0.1,1.2-1,1.4-1.2
			C8,6.7,8.8,6.1,8.9,6C9,5.9,9.1,5.8,9.1,5.8c0,0,0.1,0,0.1,0s0.2,0.2,0.4,0.3c0.2,0.2,0.6,0.5,0.6,0.5c0.1,0-1.5,1.5-2.4,2.2
			C7,9.6,6.2,10.2,6.2,10.2z M1.9,6.3c0,0-0.1-0.4-0.2-0.9S1.9,4.5,2,4.5c0,0,0.5,0.5,0.7,0.6c0.2,0.2,0.1,0.5-0.2,0.7
			C2.2,6.1,1.9,6.3,1.9,6.3z M9,5C9,5,9,5,9,5C8.9,4.9,6.8,3.1,6.5,2.9C6.3,2.7,6.1,2.5,6.1,2.4c0-0.1,0-0.9,0-1.8c0,0,0,0,0,0
			c0,0,0,0,0,0C7,1.3,8.2,2.4,8.9,2.9s1.3,1.1,1.3,1.1S10.1,4.2,10,4.3C9.9,4.4,9.6,4.6,9.3,4.8l0,0l0,0c0,0-0.1,0.1-0.2,0.1
			C9.1,5,9,5,9,5z M10.4,6.4c0,0-0.1-0.1-0.1-0.1S9.7,5.8,9.6,5.7C9.5,5.6,9.5,5.5,9.6,5.4c0,0,0.5-0.4,0.6-0.5
			c0.1-0.1,0.3,0.1,0.3,0.6C10.4,6,10.4,6.4,10.4,6.4C10.4,6.4,10.4,6.4,10.4,6.4z M5.9,10.1c0,0-0.4-0.3-0.8-0.7s-2.3-2-2.6-2.2
			C2.1,6.9,1.9,6.6,1.9,6.6c0,0,0.5-0.4,1.1-1c0,0,0,0,0,0c0,0,0,0,0,0c0.4,0.3,0.7,0.6,0.9,0.7c0.1,0.1,1,0.8,1.3,1.1
			C5.6,7.8,6,8.1,6,8.1s0,0.4,0,1S6,10.1,5.9,10.1C5.9,10.1,5.9,10.1,5.9,10.1z"/>
		<path class="st1" d="M2.9,5.1c0,0-0.2-0.2-0.4-0.3C2.3,4.6,1.9,4.3,1.9,4.2c0,0,0,0,0-0.1C1.9,4.2,2,4.1,2,4C2.1,4,4.4,2,4.9,1.5
			s1-0.6,1-0.3c0,0.3,0,1.2,0,1.3c0,0.1-0.1,0.2-0.2,0.3C5.6,2.9,5.4,3.1,5.2,3.3C5.1,3.4,4.6,3.7,4.5,3.9C4.3,4,3.7,4.5,3.4,4.8
			c0,0,0,0-0.1,0.1C3.1,5,3,5.1,2.9,5.1L2.9,5.1C3,5.1,2.9,5.1,2.9,5.1z M6,7.8c0,0-0.3-0.3-0.7-0.6C4.9,6.9,3.7,5.8,3.5,5.7
			c-0.2-0.2,0-0.6,0.4-0.9c0.4-0.3,1-0.9,1.5-1.2c0.4-0.3,1-0.4,1.4-0.1C7.1,3.8,8.1,4.7,9,5.4c0,0,0,0,0,0C9,5.5,6.1,7.9,6,7.8
			L6,7.8C6,7.8,6,7.8,6,7.8z M6.2,10.2c0,0,0-0.1,0-0.3c0-0.2,0-1.1,0-1.3c0-0.2,0.1-0.4,0.1-0.5c0.1-0.1,1.2-1,1.4-1.2
			C8,6.7,8.8,6.1,8.9,6C9,5.9,9.1,5.8,9.1,5.8c0,0,0.1,0,0.1,0s0.2,0.2,0.4,0.3c0.2,0.2,0.6,0.5,0.6,0.5c0.1,0-1.5,1.5-2.4,2.2
			C7,9.6,6.2,10.2,6.2,10.2z M1.9,6.3c0,0-0.1-0.4-0.2-0.9S1.9,4.5,2,4.5c0,0,0.5,0.5,0.7,0.6c0.2,0.2,0.1,0.5-0.2,0.7
			C2.2,6.1,1.9,6.3,1.9,6.3z M9,5C9,5,9,5,9,5C8.9,4.9,6.8,3.1,6.5,2.9C6.3,2.7,6.1,2.5,6.1,2.4c0-0.1,0-0.9,0-1.8c0,0,0,0,0,0
			c0,0,0,0,0,0C7,1.3,8.2,2.4,8.9,2.9s1.3,1.1,1.3,1.1S10.1,4.2,10,4.3C9.9,4.4,9.6,4.6,9.3,4.8l0,0l0,0c0,0-0.1,0.1-0.2,0.1
			C9.1,5,9,5,9,5z M10.4,6.4c0,0-0.1-0.1-0.1-0.1S9.7,5.8,9.6,5.7C9.5,5.6,9.5,5.5,9.6,5.4c0,0,0.5-0.4,0.6-0.5
			c0.1-0.1,0.3,0.1,0.3,0.6C10.4,6,10.4,6.4,10.4,6.4C10.4,6.4,10.4,6.4,10.4,6.4z M5.9,10.1c0,0-0.4-0.3-0.8-0.7s-2.3-2-2.6-2.2
			C2.1,6.9,1.9,6.6,1.9,6.6c0,0,0.5-0.4,1.1-1c0,0,0,0,0,0c0,0,0,0,0,0c0.4,0.3,0.7,0.6,0.9,0.7c0.1,0.1,1,0.8,1.3,1.1
			C5.6,7.8,6,8.1,6,8.1s0,0.4,0,1S6,10.1,5.9,10.1C5.9,10.1,5.9,10.1,5.9,10.1z"/>
	</g>
</g>
</svg>
